<svg  width="48" height="48" viewBox="0 0 48 48" fill="none" xmlns="http://www.w3.org/2000/svg">
<path fill-rule="evenodd" clip-rule="evenodd" d="M24 48C20.72 48 17.62 47.37 14.7 46.11C11.78 44.85 9.23 43.13 7.05 40.95C4.87 38.77 3.14999 36.22 1.89 33.3C0.630005 30.38 0 27.28 0 24C0 20.72 0.630005 17.62 1.89 14.7C3.14999 11.78 4.87 9.23001 7.05 7.04999C9.23 4.87 11.78 3.14999 14.7 1.89001C17.62 0.630005 20.72 0 24 0C27.28 0 30.38 0.630005 33.3 1.89001C36.22 3.14999 38.77 4.87 40.95 7.04999C43.13 9.23001 44.85 11.78 46.11 14.7C47.37 17.62 48 20.72 48 24C48 27.28 47.37 30.38 46.11 33.3C44.85 36.22 43.13 38.77 40.95 40.95C38.77 43.13 36.22 44.85 33.3 46.11C30.38 47.37 27.28 48 24 48ZM24 44.4C29.6 44.4 34.4 42.4 38.4 38.4C42.4 34.4 44.4 29.6 44.4 24C44.4 18.4 42.4 13.6 38.4 9.60001C34.4 5.60001 29.6 3.60001 24 3.60001C18.4 3.60001 13.6 5.60001 9.60001 9.60001C5.60001 13.6 3.60001 18.4 3.60001 24C3.60001 29.6 5.60001 34.4 9.60001 38.4C13.6 42.4 18.4 44.4 24 44.4ZM16 15H20V33H16V15ZM32 15H28V33H32V15Z" fill="#323238"/>
</svg>